<?xml version="1.0" encoding="UTF-8" standalone="no"?>
<!-- Created with Inkscape (http://www.inkscape.org/) -->

<svg
   width="264.95441mm"
   height="144.18939mm"
   viewBox="0 0 264.95441 144.18939"
   version="1.1"
   id="svg5"
   inkscape:version="1.1.2 (b8e25be833, 2022-02-05)"
   sodipodi:docname="OOOLOGO2.svg"
   xmlns:inkscape="http://www.inkscape.org/namespaces/inkscape"
   xmlns:sodipodi="http://sodipodi.sourceforge.net/DTD/sodipodi-0.dtd"
   xmlns="http://www.w3.org/2000/svg"
   xmlns:svg="http://www.w3.org/2000/svg">
  <sodipodi:namedview
     id="namedview7"
     pagecolor="#ffffff"
     bordercolor="#666666"
     borderopacity="1.0"
     inkscape:pageshadow="2"
     inkscape:pageopacity="0.0"
     inkscape:pagecheckerboard="0"
     inkscape:document-units="mm"
     showgrid="false"
     inkscape:zoom="0.70710678"
     inkscape:cx="313.2483"
     inkscape:cy="196.57568"
     inkscape:window-width="1920"
     inkscape:window-height="1017"
     inkscape:window-x="-8"
     inkscape:window-y="-8"
     inkscape:window-maximized="1"
     inkscape:current-layer="layer1-8"
     width="1033.3373mm" />
  <defs
     id="defs2">
    <linearGradient
       id="linearGradient3912"
       inkscape:swatch="solid">
      <stop
         style="stop-color:#000000;stop-opacity:1;"
         offset="0"
         id="stop3910" />
    </linearGradient>
    <linearGradient
       id="linearGradient1558"
       inkscape:swatch="gradient">
      <stop
         style="stop-color:#000000;stop-opacity:1;"
         offset="0"
         id="stop1554" />
      <stop
         style="stop-color:#000000;stop-opacity:0;"
         offset="1"
         id="stop1556" />
    </linearGradient>
  </defs>
  <g
     inkscape:label="Layer 1"
     inkscape:groupmode="layer"
     id="layer1"
     transform="translate(268.77234,66.521505)">
    <g
       inkscape:label="Layer 1"
       id="layer1-8"
       transform="translate(-241.60289,-43.960293)">
      <text
         xml:space="preserve"
         style="font-size:50.8px;line-height:1.25;font-family:sans-serif;stroke-width:0.264583"
         x="197.96303"
         y="153.18658"
         id="text122240"><tspan
           sodipodi:role="line"
           id="tspan122238"
           style="font-style:normal;font-variant:normal;font-weight:normal;font-stretch:normal;font-family:'Maiandra GD';-inkscape-font-specification:'Maiandra GD';stroke-width:0.264583"
           x="197.96303"
           y="153.18658" /></text>
      <g
         aria-label="RETAIL"
         transform="matrix(1.1289214,3.1815718e-4,0.00384518,0.88580234,0,0)"
         id="text3650"
         style="font-size:79.6531px;line-height:1.25;font-family:Blockt;-inkscape-font-specification:Blockt;letter-spacing:-3.18029px;word-spacing:-0.00597398px;white-space:pre;stroke-width:0.298698">
        <path
           d="M -1.7720402,2.89189 H -7.0615038 V -9.670586 h 5.2894636 z M 15.107572,56.019885 H -23.980009 V -25.461191 H 6.6288726 l 8.4786994,12.095759 z M -21.257491,41.629432 H -6.9837176 V 15.804404 l 5.2894637,8.712058 v 17.11297 H 12.46284 V 20.588257 L 6.3566208,11.798413 H 12.46284 V -12.393104 L 5.1120411,-22.933138 H -21.257491 Z"
           id="path87259" />
        <path
           d="m 54.048524,56.019885 h -39.08758 l 0.03889,-81.481076 h 39.08758 V 4.3309353 H 41.991658 V 26.033293 H 54.048524 Z M 51.442685,-10.059517 V -22.933138 H 17.683462 v 64.56257 h 33.72033 V 28.600239 H 31.957235 V 15.804404 H 39.26914 V 2.6974245 H 31.957235 V -10.059517 Z"
           id="path87261" />
        <path
           d="M 63.975214,56.019885 V 5.8088737 H 53.940791 V -25.461191 H 92.950585 V 5.8088737 H 83.382878 V 56.019885 Z M 80.815933,41.629432 v -51.688949 h 10.034423 v -12.873621 h -34.34262 v 12.873621 H 66.54216 v 51.688949 z"
           id="path87263" />
        <path
           d="m 101.28266,-25.461191 h 30.60888 V 56.019885 H 92.803957 v -69.385317 z m 8.40091,23.4136555 5.28946,-7.6619436 v 13.923735 h -5.28946 z m 5.28946,43.6769675 h 14.19599 v -64.56257 h -26.36953 l -7.350801,10.540034 V 41.629432 H 109.68357 V 17.321236 h 5.28946 z"
           id="path87265" />
        <path
           d="M 171.22142,-25.461191 V 5.8088737 H 161.18699 V 24.749821 h 10.03443 V 56.019885 H 131.74491 V 24.749821 h 10.03442 V 5.8088737 H 131.74491 V -25.461191 Z m -26.87514,54.217002 h -10.03443 v 12.873621 h 34.34262 V 28.755811 h -10.03442 v -38.815328 h 10.03442 v -12.873621 h -34.34262 v 12.873621 h 10.03443 z"
           id="path87267" />
        <path
           d="M 210.16238,56.019885 H 171.0748 l 0.0389,-81.481076 h 19.67992 v 51.494484 h 19.36877 z m -22.09129,-78.953023 h -14.27377 v 64.56257 h 33.72033 V 28.600239 h -19.44656 z"
           id="path87269" />
      </g>
      <g
         aria-label="PARODY"
         transform="matrix(1.12974,3.1792665e-4,0.00384798,0.88516054,0,0)"
         id="text3650-9"
         style="font-size:79.7109px;line-height:1.25;font-family:Blockt;-inkscape-font-specification:Blockt;letter-spacing:-3.18259px;word-spacing:-0.00597831px;white-space:pre;stroke-width:0.298913">
        <path
           d="M 15.163731,67.896949 V 112.92894 H -4.3358592 v 24.40368 H -23.952213 V 55.792413 H 6.6788794 Z M -1.7281296,85.528315 H -7.0214315 V 71.594476 h 5.2933019 z M -7.0214315,98.605884 H 12.478159 V 68.869982 L 5.1609472,58.3223 H -21.22772 v 64.60942 h 14.2062885 z"
           id="path87291" />
        <path
           d="M 23.501857,55.792413 H 54.13295 V 137.33262 H 15.017006 V 67.896949 Z m 8.407009,23.430645 5.293302,-7.667503 v 13.933839 h -5.293302 z m 5.293302,43.708662 H 51.408457 V 58.3223 H 25.01979 L 17.663657,68.869982 V 122.93172 H 31.908866 V 98.605884 h 5.293302 z"
           id="path87293" />
        <path
           d="M 76.210309,84.166068 H 70.917007 V 71.594476 h 5.293302 z m 16.89186,53.166552 H 53.986225 V 55.792413 h 30.631093 l 8.484851,12.104536 z m -36.39145,-14.4009 H 70.99485 V 97.087952 l 5.293302,8.718378 v 17.12539 h 14.167366 v -21.05644 l -6.11065,-8.796226 h 6.11065 V 68.869982 L 83.099386,58.3223 H 56.710719 Z"
           id="path87295" />
        <path
           d="m 129.42474,58.3223 h -26.46651 l -7.278288,10.353076 v 54.256344 h 24.481518 l 9.26328,-13.15541 z m -14.16737,51.57077 h -5.2933 V 71.555555 h 5.2933 z M 92.955448,137.33262 V 67.896949 L 101.4403,55.792413 h 30.63109 v 69.435667 l -8.48485,12.10454 z"
           id="path87297" />
        <path
           d="m 148.93329,71.555555 h 5.2933 v 38.337515 h -5.2933 z m 10.19739,51.376165 9.26328,-13.15541 V 68.869982 L 161.03782,58.3223 h -26.38866 v 64.60942 z m 11.90993,2.29636 -8.48485,12.10454 h -30.6311 l 0.0389,-81.540207 h 30.59218 l 8.48485,12.104536 z"
           id="path87299" />
        <path
           d="m 183.23195,122.93172 h 14.28413 V 95.064043 l 9.8471,-14.128446 V 58.3223 h -14.16737 v 18.33195 l -5.2933,7.317211 V 58.3223 h -14.28413 v 39.660843 h 9.61357 z M 170.89389,55.792413 h 39.11594 v 39.816528 l -9.80818,13.855999 v 27.86768 h -19.42174 v -24.94858 h -9.88602 z"
           id="path87301" />
      </g>
      <text
         xml:space="preserve"
         style="font-size:50.8px;line-height:1.25;font-family:sans-serif;letter-spacing:15.875px;stroke-width:0.264583"
         x="-27.910879"
         y="109.52056"
         id="text58994"><tspan
           sodipodi:role="line"
           id="tspan58992"
           style="font-style:normal;font-variant:normal;font-weight:normal;font-stretch:normal;font-family:Blockt;-inkscape-font-specification:Blockt;stroke-width:0.264583"
           x="-27.910879"
           y="109.52056" /></text>
      <path
         style="fill:#000000;fill-opacity:1;stroke:#000000;stroke-width:0.264583px;stroke-linecap:butt;stroke-linejoin:miter;stroke-opacity:1"
         d="M 45.614978,0.91560405 45.427891,23.927509 59.646626,24.769408 59.833713,50.774732 73.39763,50.587645 73.584743,1.1026909 Z"
         id="path69217" />
      <path
         style="fill:#000000;fill-opacity:1;stroke:#000000;stroke-width:0.264583px;stroke-linecap:butt;stroke-linejoin:miter;stroke-opacity:1"
         d="M 105.89476,3.0586179 92.797885,3.3232012 93.856218,50.683617 95.311427,51.080492 105.76247,62.85445 117.66872,47.905492 106.68851,47.640909 Z"
         id="path70274" />
      <path
         style="fill:#000000;fill-opacity:1;stroke:#000000;stroke-width:0.264583px;stroke-linecap:butt;stroke-linejoin:miter;stroke-opacity:1"
         d="m 147.69893,3.0586179 0.26458,20.6375001 13.36146,0.264583 0.26458,-22.0927081 z"
         id="path70309" />
      <path
         style="fill:#000000;fill-opacity:1;stroke:#000000;stroke-width:0.264583px;stroke-linecap:butt;stroke-linejoin:miter;stroke-opacity:1"
         d="M 180.63955,3.5877846 V 22.902368 l 14.15521,0.926041 -0.66146,-21.6958328 z"
         id="path70344" />
      <path
         style="fill:#000000;fill-opacity:1;stroke:#000000;stroke-width:0.264583px;stroke-linecap:butt;stroke-linejoin:miter;stroke-opacity:1"
         d="m 181.30101,48.302367 13.36146,14.816667 0.26458,-14.948958 z"
         id="path70379" />
      <path
         style="fill:#000000;fill-opacity:1;stroke:#000000;stroke-width:0.264583px;stroke-linecap:butt;stroke-linejoin:miter;stroke-opacity:1"
         d="M 4.4270529,48.699242 17.920803,61.663825 29.694761,47.773201 Z"
         id="path70414" />
    </g>
  </g>
</svg>
